# xmcd
#
# Track frame offsets:
#	150
#	16037
#	31367
#	44581
#	59469
#	72491
#	91732
#	105687
#	121248
#	135147
#	149990
#	162741
#	176515
#	191849
#
# Disc length: 2804 seconds
#
# Revision: 1
# Processed by: cddbd v1.5.2PL0 Copyright (c) Steve Scherf et al.
# Submitted via: audiograbber 1.83.01
#
DISCID=ca0af20e
DTITLE=TR Dallas - Rambling Boy
DYEAR=1900
DGENRE=
TTITLE0=Rambling Boy
TTITLE1=Look What We Started Again
TTITLE2=The Lassies From Belmullet And The Boys From Castlebar
TTITLE3=Never Grow Old
TTITLE4=Say You Love Me
TTITLE5=Why Can't We
TTITLE6=Key Of Life
TTITLE7=Home Away From Home
TTITLE8=Last One To Touch Me
TTITLE9=The Guinness Song
TTITLE10=Warning Labels
TTITLE11=John Shortall
TTITLE12=21 Acres Of Land
TTITLE13=Limerick Vales
EXTD=
EXTT0=
EXTT1=
EXTT2=
EXTT3=
EXTT4=
EXTT5=
EXTT6=
EXTT7=
EXTT8=
EXTT9=
EXTT10=
EXTT11=
EXTT12=
EXTT13=
PLAYORDER=
